name Walk1.mot
datacolumns 19
datarows 12
range 1.64000000 1.69500000
endheader

                time	   L_ground_force_vx	   L_ground_force_vy	   L_ground_force_vz	   L_ground_force_px	   L_ground_force_py	   L_ground_force_pz	   R_ground_force_vx	   R_ground_force_vy	   R_ground_force_vz	   R_ground_force_px	   R_ground_force_py	   R_ground_force_pz	   L_ground_torque_x	   L_ground_torque_y	   L_ground_torque_z	   R_ground_torque_x	   R_ground_torque_y	   R_ground_torque_z	
          1.64000000	         -9.02622813	         97.50992301	        -13.09917859	         -0.06598747	          0.00000000	         -0.00201429	         -0.00000000	          0.00000027	          0.00000002	          0.00000000	          0.00000000	          0.00000000	          0.00000000	          0.19326162	          0.00000000	          0.00000000	         -0.00000001	          0.00000000	
          1.64500000	        -13.03096625	        150.47280155	        -17.71646984	         -0.14504826	          0.00000000	         -0.00552410	         -0.00000002	          0.00000044	          0.00000003	          0.00000000	          0.00000000	          0.00000000	          0.00000000	          0.23120731	          0.00000000	          0.00000000	         -0.00000001	          0.00000000	
          1.65000000	        -18.90977131	        201.89527848	        -22.09682034	         -0.21402793	          0.00000000	         -0.00864521	         -0.00000003	          0.00000066	          0.00000004	          0.00000000	          0.00000000	          0.00000000	          0.00000000	          0.27672846	          0.00000000	          0.00000000	         -0.00000001	          0.00000000	
          1.65500000	        -26.49466381	        249.91394780	        -25.83494448	         -0.27084970	          0.00000000	         -0.01132137	         -0.00000006	          0.00000093	          0.00000005	          0.00000000	          0.00000000	          0.00000000	          0.00000000	          0.32387468	          0.00000000	          0.00000000	         -0.00000002	          0.00000000	
          1.66000000	        -35.27517735	        293.72464143	        -28.55903881	         -0.31514368	          0.00000000	         -0.01357092	         -0.00000008	          0.00000122	          0.00000007	          0.00000000	          0.00000000	          0.00000000	          0.00000000	          0.36357785	          0.00000000	          0.00000000	         -0.00000002	          0.00000000	
          1.66500000	        -44.54328486	        333.16198603	        -30.00550287	         -0.34766695	          0.00000000	         -0.01544743	         -0.00000012	          0.00000152	          0.00000008	          0.00000000	          0.00000000	          0.00000000	          0.00000000	          0.38525433	          0.00000000	          0.00000000	         -0.00000002	          0.00000000	
          1.67000000	        -53.59648738	        368.49033690	        -30.05277194	         -0.36983664	          0.00000000	         -0.01701731	         -0.00000016	          0.00000182	          0.00000010	          0.00000000	          0.00000000	          0.00000000	          0.00000000	          0.37932023	          0.00000000	          0.00000000	         -0.00000002	          0.00000000	
          1.67500000	        -61.95260267	        400.25269202	        -28.72526223	         -0.38337916	          0.00000000	         -0.01834686	         -0.00000020	          0.00000204	          0.00000011	          0.00000000	          0.00000000	          0.00000000	          0.00000000	          0.33992010	          0.00000000	          0.00000000	         -0.00000002	          0.00000000	
          1.68000000	        -69.46114553	        429.08671745	        -26.16654759	         -0.39008403	          0.00000000	         -0.01949318	         -0.00000024	          0.00000215	          0.00000011	          0.00000000	          0.00000000	          0.00000000	          0.00000000	          0.26692017	          0.00000000	          0.00000000	         -0.00000001	          0.00000000	
          1.68500000	        -76.21346170	        455.52538316	        -22.61003925	         -0.39164788	          0.00000000	         -0.02049776	         -0.00000027	          0.00000205	          0.00000010	          0.00000000	          0.00000000	          0.00000000	          0.00000000	          0.16635205	          0.00000000	          0.00000000	         -0.00000000	          0.00000000	
          1.69000000	        -82.32147174	        479.89438825	        -18.35933218	         -0.38958797	          0.00000000	         -0.02138317	         -0.00000029	          0.00000164	          0.00000008	         -0.00000000	          0.00000000	         -0.00000000	          0.00000000	          0.04951406	          0.00000000	          0.00000000	          0.00000001	          0.00000000	
          1.69500000	        -87.75318597	        502.38581243	        -13.75147506	         -0.38519148	          0.00000000	         -0.02215794	         -0.00000028	          0.00000079	          0.00000003	         -0.00000000	          0.00000000	         -0.00000000	          0.00000000	         -0.06930849	          0.00000000	          0.00000000	          0.00000004	          0.00000000	
